<svg width="24" height="24" viewBox="0 0 64 64" fill="none" xmlns="http://www.w3.org/2000/svg">
<path d="M26.35 36.89L55.335 7.905" stroke="black" stroke-width="5.27" stroke-linecap="round" stroke-linejoin="round"/>
<path d="M55.335 7.905L38.2075 55.335C38.0919 55.5873 37.9063 55.8011 37.6727 55.9509C37.4392 56.1008 37.1675 56.1805 36.89 56.1805C36.6125 56.1805 36.3408 56.1008 36.1073 55.9509C35.8737 55.8011 35.6881 55.5873 35.5725 55.335L26.35 36.89L7.905 27.6675C7.65272 27.5519 7.43894 27.3663 7.28906 27.1327C7.13918 26.8992 7.0595 26.6275 7.0595 26.35C7.0595 26.0725 7.13918 25.8008 7.28906 25.5673C7.43894 25.3337 7.65272 25.1481 7.905 25.0325L55.335 7.905Z" stroke="black" stroke-width="5.27" stroke-linecap="round" stroke-linejoin="round"/>
</svg>
